<svg width="46" height="49" viewBox="0 0 46 49" fill="none" xmlns="http://www.w3.org/2000/svg">
<g clip-path="url(#clip0_134_2638)">
<g clip-path="url(#clip1_134_2638)">
<path d="M1.73828 41.5743H2.87828C2.95628 41.7963 3.04703 42.013 3.14753 42.2253L2.34128 43.0315C2.20028 43.1725 2.12153 43.363 2.12153 43.5618C2.12153 43.7605 2.20028 43.9518 2.34128 44.092L4.46678 46.2175C4.74803 46.4988 5.24603 46.4988 5.52728 46.2175L6.33428 45.4105C6.54653 45.5118 6.76328 45.601 6.98453 45.679V46.8213C6.98453 47.2353 7.32053 47.5713 7.73453 47.5713H10.7405C11.1545 47.5713 11.4905 47.2353 11.4905 46.8213V45.6775C11.711 45.5995 11.9278 45.5095 12.1385 45.409L12.9478 46.2183C13.0888 46.3593 13.2793 46.438 13.478 46.438C13.6768 46.438 13.868 46.3593 14.0083 46.2183L16.1338 44.0928C16.2748 43.9518 16.3535 43.7613 16.3535 43.5625C16.3535 43.3638 16.2748 43.1725 16.1338 43.0323L15.3238 42.2223C15.4243 42.0115 15.5135 41.7955 15.5915 41.575H16.7383C17.1523 41.575 17.4883 41.239 17.4883 40.825V37.819C17.4883 37.405 17.1523 37.069 16.7383 37.069H15.5923C15.5143 36.8485 15.425 36.6325 15.3245 36.4218L16.1345 35.6118C16.2755 35.4708 16.3543 35.2803 16.3543 35.0815C16.3543 34.8828 16.2755 34.6915 16.1345 34.5513L14.009 32.4258C13.7278 32.1445 13.2298 32.1445 12.9485 32.4258L12.1393 33.235C11.9285 33.1345 11.7118 33.0453 11.4913 32.9665V31.8213C11.4913 31.4073 11.1553 31.0713 10.7413 31.0713H7.73528C7.32128 31.0713 6.98528 31.4073 6.98528 31.8213V32.9628C6.76403 33.0408 6.54728 33.1308 6.33503 33.2313L5.52803 32.4243C5.38703 32.2833 5.19653 32.2045 4.99778 32.2045C4.79903 32.2045 4.60778 32.2833 4.46753 32.4243L2.34203 34.5498C2.20103 34.6908 2.12228 34.8813 2.12228 35.08C2.12228 35.2788 2.20103 35.47 2.34203 35.6103L3.14828 36.4165C3.04703 36.6295 2.95703 36.8463 2.87828 37.0683H1.73828C1.32428 37.0683 0.988281 37.4043 0.988281 37.8183V40.8243C0.988281 41.2383 1.32428 41.5743 1.73828 41.5743ZM2.48828 38.5683H3.43253C3.77453 38.5683 4.07303 38.3365 4.15853 38.0058C4.28078 37.5325 4.46828 37.0795 4.71578 36.6603C4.88978 36.3655 4.84178 35.9905 4.60028 35.749L3.93203 35.0808L4.99703 34.0158L5.66528 34.6848C5.90603 34.9263 6.28028 34.9743 6.57653 34.8003C6.99578 34.5535 7.44803 34.366 7.92128 34.2445C8.25278 34.159 8.48378 33.8605 8.48378 33.5185V32.5713H9.98978V33.5193C9.98978 33.8613 10.2208 34.1598 10.5515 34.2453C11.0255 34.3683 11.477 34.5558 11.8955 34.8025C12.1895 34.9758 12.566 34.9285 12.8068 34.687L13.4773 34.0158L14.5423 35.0808L13.8703 35.7528C13.6288 35.9943 13.5808 36.3693 13.7548 36.664C14.0008 37.0818 14.1875 37.5333 14.3098 38.0073C14.3953 38.338 14.6938 38.5698 15.0358 38.5698H15.9883V40.0758H15.038C14.696 40.0758 14.3975 40.3068 14.312 40.6383C14.1898 41.1115 14.0023 41.5638 13.757 41.9815C13.583 42.2763 13.631 42.6513 13.8725 42.8928L14.5438 43.564L13.4788 44.629L12.8083 43.9563C12.5675 43.7148 12.1918 43.6668 11.897 43.8408C11.4793 44.0875 11.027 44.275 10.553 44.398C10.2223 44.4835 9.99128 44.782 9.99128 45.124V46.0713H8.48528V45.1248C8.48528 44.7828 8.25353 44.4843 7.92278 44.3988C7.44953 44.2765 6.99653 44.0898 6.57803 43.843C6.28178 43.6698 5.90753 43.7178 5.66678 43.9585L4.99853 44.6268L3.93353 43.5618L4.60103 42.8943C4.84328 42.6528 4.89053 42.2778 4.71653 41.983C4.46903 41.563 4.28153 41.1108 4.15928 40.6375C4.07378 40.3068 3.77528 40.075 3.43328 40.075H2.48828V38.5683Z" fill="#96D055"/>
<path d="M9.23828 43.0713C11.306 43.0713 12.9883 41.389 12.9883 39.3213C12.9883 37.2535 11.306 35.5713 9.23828 35.5713C7.17053 35.5713 5.48828 37.2535 5.48828 39.3213C5.48828 41.389 7.17053 43.0713 9.23828 43.0713ZM9.23828 37.0713C10.4788 37.0713 11.4883 38.0808 11.4883 39.3213C11.4883 40.5618 10.4788 41.5713 9.23828 41.5713C7.99778 41.5713 6.98828 40.5618 6.98828 39.3213C6.98828 38.0808 7.99778 37.0713 9.23828 37.0713Z" fill="#96D055"/>
<path d="M47.4493 5.02079C47.3601 4.75454 47.1291 4.55954 46.8516 4.51754L44.1381 4.10354L42.9178 1.50329C42.7941 1.23929 42.5293 1.07129 42.2383 1.07129C41.9473 1.07129 41.6826 1.23929 41.5596 1.50254L40.3393 4.10279L37.6258 4.51679C37.3476 4.55954 37.1173 4.75379 37.0281 5.02004C36.9388 5.28629 37.0063 5.58104 37.2021 5.78204L39.1873 7.81679L38.7178 10.6998C38.6713 10.9833 38.7913 11.2683 39.0261 11.434C39.2608 11.599 39.5691 11.6155 39.8211 11.4775L42.2383 10.141L44.6563 11.4775C44.7696 11.5398 44.8948 11.5713 45.0193 11.5713C45.1708 11.5713 45.3223 11.5248 45.4513 11.434C45.6861 11.269 45.8061 10.9833 45.7596 10.6998L45.2901 7.81679L47.2753 5.78204C47.4718 5.58179 47.5386 5.28779 47.4493 5.02079ZM43.9513 7.04129C43.7848 7.21154 43.7098 7.45079 43.7481 7.68554L44.0301 9.41729L42.6006 8.62754C42.4881 8.56529 42.3628 8.53379 42.2376 8.53379C42.1123 8.53379 41.9878 8.56529 41.8746 8.62754L40.4451 9.41729L40.7271 7.68554C40.7653 7.45079 40.6903 7.21154 40.5238 7.04129L39.2931 5.77979L40.9596 5.52554C41.2071 5.48729 41.4193 5.32904 41.5251 5.10254L42.2383 3.58679L42.9501 5.10254C43.0566 5.32904 43.2688 5.48729 43.5156 5.52554L45.1821 5.77979L43.9513 7.04129Z" fill="#96D055"/>
<path d="M35.7711 10.1286C35.3631 10.0663 34.9416 10.1743 34.6161 10.4293L28.7316 15.0328C29.0548 14.4111 29.2041 13.7128 29.1441 12.9973C29.0601 11.9991 28.5921 11.0938 27.8263 10.4473C27.0606 9.80084 26.0908 9.49259 25.0918 9.57584C24.0936 9.66059 23.1883 10.1286 22.5418 10.8936C21.8961 11.6593 21.5863 12.6298 21.6703 13.6281C21.7423 14.4741 22.1023 15.2428 22.6723 15.8541C21.7993 16.0701 21.0291 16.5868 20.5123 17.3256L14.6031 25.3911C14.2656 25.8733 14.2386 26.4898 14.5326 26.9998C14.8258 27.5091 15.3688 27.7926 15.9591 27.7461L17.7561 27.5938C18.1926 27.5571 18.5901 27.3321 18.8353 26.9908L22.4031 22.2973L22.6731 25.4998L20.9008 37.6558C20.2318 37.7931 19.5598 37.9161 18.8841 38.0106L19.0918 39.4956C21.4453 39.1663 23.7681 38.5881 25.9948 37.7758C30.3148 36.2008 33.7678 33.9336 36.4303 31.6573L36.5983 31.6071L36.5751 31.5291C39.1438 29.3076 40.9648 27.0898 42.0981 25.5081C42.2428 25.3056 42.2781 25.0453 42.1918 24.8128C42.1063 24.5796 41.9106 24.4041 41.6698 24.3441L40.5133 24.0546L44.7246 21.7153L45.7191 26.1913L44.7261 25.8606C44.4028 25.7526 44.0496 25.8763 43.8628 26.1591L43.7383 26.3466C34.3101 40.7008 23.8296 44.1808 16.6971 44.5723L16.7788 46.0701C24.2061 45.6621 35.0743 42.0943 44.7966 27.4648L46.4998 28.0326C46.7556 28.1188 47.0383 28.0588 47.2393 27.8781C47.4403 27.6973 47.5273 27.4221 47.4688 27.1588L45.9688 20.4088C45.9178 20.1778 45.7603 19.9843 45.5443 19.8876C45.3283 19.7916 45.0801 19.8006 44.8723 19.9161L38.1223 23.6661C37.8531 23.8153 37.7031 24.1146 37.7436 24.4198C37.7833 24.7251 38.0068 24.9748 38.3053 25.0491L40.2141 25.5261C39.2248 26.8056 37.8591 28.3633 36.1018 29.9451L34.7646 25.4593C34.6401 25.0738 34.3603 24.7506 34.0131 24.5803L30.9298 22.9746L30.4476 19.3086L37.3146 14.0766C37.9498 13.5936 38.0953 12.6981 37.6453 12.0388L36.7783 10.7653C36.5473 10.4248 36.1798 10.1923 35.7711 10.1286ZM25.2178 11.0713C25.2823 11.0661 25.3468 11.0631 25.4113 11.0631C25.9416 11.0631 26.4493 11.2483 26.8588 11.5941C27.3178 11.9818 27.5983 12.5248 27.6493 13.1241C27.6996 13.7233 27.5143 14.3061 27.1266 14.7651C26.7388 15.2241 26.1958 15.5053 25.5966 15.5556C24.9966 15.6073 24.4146 15.4206 23.9556 15.0328C23.4966 14.6451 23.2153 14.1021 23.1651 13.5028C23.0608 12.2661 23.9818 11.1756 25.2178 11.0713ZM26.2371 36.0718L27.7978 27.0651L30.5548 28.4031L32.1846 32.9781C30.4468 34.1271 28.4676 35.1928 26.2371 36.0718ZM29.1943 18.3793C28.9806 18.5421 28.8703 18.8068 28.9048 19.0738L29.4943 23.5581C29.5266 23.8003 29.6743 24.0126 29.8918 24.1251L33.3328 25.9041L34.8568 31.0168C34.4136 31.3783 33.9463 31.7368 33.4603 32.0923L31.9588 27.8773C31.8208 27.5278 31.5598 27.2451 31.2238 27.0808L27.5586 25.2823C27.3471 25.1788 27.0988 25.1811 26.8873 25.2876C26.6766 25.3948 26.5288 25.5951 26.4891 25.8276L24.6126 36.6591C23.9061 36.8938 23.1921 37.1098 22.4698 37.2958L24.1708 25.6326C24.1791 25.5756 24.1806 25.5186 24.1761 25.4608L23.7343 20.2296C23.7081 19.9198 23.4943 19.6588 23.1966 19.5726C22.8981 19.4848 22.5778 19.5921 22.3903 19.8388L17.6308 26.1006L15.8241 26.2656L21.7333 18.2001C22.1173 17.6518 22.7203 17.3046 23.3878 17.2476L25.7226 17.0503H25.7241L28.7136 16.7976C28.8591 16.7848 28.9978 16.7308 29.1126 16.6408L35.5416 11.6113L36.4093 12.8848L29.1943 18.3793Z" fill="#96D055"/>
<path d="M3.23828 1.82129H4.73828V3.32129H3.23828V1.82129Z" fill="#96D055"/>
<path d="M4.73828 3.32129H6.23828V4.82129H4.73828V3.32129Z" fill="#96D055"/>
<path d="M1.73828 3.32129H3.23828V4.82129H1.73828V3.32129Z" fill="#96D055"/>
<path d="M3.23828 4.82129H4.73828V6.32129H3.23828V4.82129Z" fill="#96D055"/>
<path d="M9.23828 4.07129H10.7383V5.57129H9.23828V4.07129Z" fill="#96D055"/>
<path d="M10.7383 5.57129H12.2383V7.07129H10.7383V5.57129Z" fill="#96D055"/>
<path d="M7.73828 5.57129H9.23828V7.07129H7.73828V5.57129Z" fill="#96D055"/>
<path d="M9.23828 7.07129H10.7383V8.57129H9.23828V7.07129Z" fill="#96D055"/>
<path d="M43.7383 42.3213H45.2383V43.8213H43.7383V42.3213Z" fill="#96D055"/>
<path d="M45.2383 43.8213H46.7383V45.3213H45.2383V43.8213Z" fill="#96D055"/>
<path d="M42.2383 43.8213H43.7383V45.3213H42.2383V43.8213Z" fill="#96D055"/>
<path d="M43.7383 45.3213H45.2383V46.8213H43.7383V45.3213Z" fill="#96D055"/>
</g>
</g>
<defs>
<clipPath id="clip0_134_2638">
<rect width="45.3616" height="48" fill="white" transform="translate(0.5 0.307617)"/>
</clipPath>
<clipPath id="clip1_134_2638">
<rect width="48" height="48" fill="white" transform="translate(0.238281 0.321289)"/>
</clipPath>
</defs>
</svg>
