<svg width="46" height="49" viewBox="0 0 46 49" fill="none" xmlns="http://www.w3.org/2000/svg">
<g clip-path="url(#clip0_134_2666)">
<path fill-rule="evenodd" clip-rule="evenodd" d="M27.9956 34.8234C28.1061 35.08 28.3501 35.2539 28.6287 35.2746C28.6474 35.276 28.666 35.2767 28.6847 35.2767C28.9427 35.2767 29.1843 35.1436 29.3218 34.9221L31.1389 31.9938L34.5151 32.6852C34.7891 32.7411 35.071 32.6405 35.2473 32.4238C35.4237 32.2072 35.4649 31.9104 35.3545 31.6538L32.8472 25.8323C32.9238 25.7997 33.0023 25.7663 33.085 25.7309C34.378 25.1772 35.1345 23.8668 34.9676 22.4702C34.9366 22.2108 34.9076 21.98 34.8816 21.7728C34.7775 20.9417 34.7251 20.5245 34.7813 20.2058C34.8376 19.887 35.0294 19.5129 35.4116 18.7676C35.5069 18.5817 35.6131 18.3747 35.7309 18.1415C36.3655 16.8862 36.1027 15.396 35.0771 14.4336C34.8867 14.2548 34.7161 14.0967 34.5631 13.9545C33.9489 13.3849 33.6407 13.099 33.4789 12.8187C33.317 12.5383 33.2236 12.1285 33.0373 11.3119C32.9908 11.1083 32.939 10.8814 32.8794 10.627C32.5586 9.25747 31.3995 8.2849 29.9951 8.20681C29.7343 8.19228 29.502 8.18075 29.2934 8.17034C28.4567 8.12871 28.0368 8.10781 27.7327 7.99709C27.4286 7.88637 27.0935 7.6325 26.4258 7.12662C26.2594 7.00043 26.0739 6.86 25.8648 6.70343C24.7387 5.86062 23.2258 5.86053 22.0997 6.70343C21.8906 6.86 21.7051 7.00043 21.5387 7.12662C20.871 7.6325 20.5359 7.88637 20.2318 7.99709C19.9277 8.10781 19.5077 8.12871 18.6711 8.17034C18.4624 8.18075 18.2302 8.19228 17.9694 8.20681C16.565 8.2849 15.4058 9.25756 15.0851 10.627C15.0255 10.8814 14.9737 11.1082 14.9272 11.3119C14.7409 12.1285 14.6475 12.5384 14.4856 12.8187C14.3237 13.099 14.0155 13.3849 13.4014 13.9545C13.2483 14.0967 13.0778 14.2548 12.8874 14.4336C11.8619 15.3961 11.599 16.8863 12.2335 18.1416C12.3513 18.3747 12.4575 18.5816 12.5527 18.7674C12.9349 19.5128 13.1268 19.8869 13.1831 20.2057C13.2393 20.5243 13.1869 20.9415 13.0828 21.7725C13.0568 21.9798 13.0278 22.2107 12.9968 22.4702C12.8299 23.8668 13.5864 25.1772 14.8794 25.7309C15.1196 25.8338 15.3339 25.9242 15.5264 26.0052C15.5849 26.0299 15.6404 26.0533 15.6946 26.0762L12.6189 32.6822C12.501 32.9355 12.5337 33.2333 12.7036 33.4551C12.8735 33.6768 13.1526 33.786 13.428 33.7376L16.8229 33.1444L18.5544 36.1241C18.6891 36.3557 18.9364 36.4972 19.2028 36.4972C19.214 36.4972 19.2255 36.4969 19.2368 36.4964C19.516 36.4838 19.7649 36.317 19.8828 36.0638L22.9437 29.4892C23.4347 29.3416 23.7324 29.2673 23.9824 29.2673C24.3061 29.2673 24.7079 29.3912 25.5083 29.6382C25.6009 29.6668 25.699 29.6971 25.8018 29.7286L27.9956 34.8234ZM30.9277 30.4194C30.62 30.3565 30.3056 30.4918 30.1399 30.7587L28.8048 32.9102L27.5302 29.9506C28.4051 29.8292 29.2058 29.339 29.7177 28.5562C29.8607 28.3375 29.9868 28.1421 30.1002 27.9666C30.5546 27.2629 30.7826 26.9097 31.0306 26.7016C31.1418 26.6082 31.2816 26.5239 31.4712 26.4298L33.4082 30.9273L30.9277 30.4194ZM19.1288 34.128L17.8567 31.9388C17.6988 31.6672 17.3885 31.5229 17.0792 31.5768L14.5848 32.0126L17.0203 26.7817C17.2379 26.9979 17.4627 27.3457 17.8637 27.9667C17.977 28.1422 18.1032 28.3376 18.2462 28.5562C18.879 29.524 19.9527 30.0453 21.0627 29.9742L19.1288 34.128ZM23.9819 27.7665C23.4715 27.7665 22.9609 27.9127 22.0137 28.205C21.8165 28.2658 21.5972 28.3335 21.3502 28.4082C20.6361 28.6238 19.9101 28.36 19.5015 27.7352C19.3602 27.5193 19.2356 27.3263 19.1237 27.153C18.0482 25.4875 17.9355 25.393 16.1084 24.623C15.9183 24.5429 15.7067 24.4537 15.4695 24.3521C14.7833 24.0582 14.3972 23.3893 14.4857 22.6482C14.5164 22.3919 14.545 22.1638 14.5707 21.9592C14.8173 19.9921 14.7917 19.8472 13.887 18.0828C13.7928 17.8992 13.6881 17.695 13.5718 17.4648C13.235 16.7986 13.3692 16.0381 13.9135 15.5273C14.1017 15.3507 14.27 15.1946 14.4212 15.0542C15.8748 13.7058 15.9483 13.5784 16.3893 11.6456C16.4352 11.4444 16.4863 11.2204 16.5452 10.9691C16.7153 10.2423 17.307 9.7459 18.0523 9.70447C18.3099 9.69012 18.5393 9.67868 18.7454 9.66847C20.7256 9.56984 20.8639 9.5195 22.4442 8.32222C22.6086 8.19762 22.7917 8.05887 22.9982 7.90428C23.5959 7.457 24.368 7.457 24.9657 7.90428C25.1722 8.05887 25.3553 8.19762 25.5197 8.32222C27.1 9.5195 27.2384 9.56984 29.2186 9.66847C29.4245 9.67868 29.654 9.69012 29.9117 9.70447C30.657 9.7459 31.2485 10.2423 31.4188 10.9691C31.4777 11.2203 31.5287 11.4443 31.5746 11.6455C32.0156 13.5783 32.0891 13.7058 33.5427 15.0541C33.6939 15.1945 33.8623 15.3507 34.0504 15.5272C34.5947 16.038 34.7287 16.7985 34.3921 17.4647C34.2757 17.695 34.1709 17.8994 34.0767 18.083C33.1721 19.8472 33.1465 19.9921 33.3932 21.9594C33.4188 22.164 33.4475 22.3919 33.4781 22.6481C33.5667 23.3892 33.1805 24.0582 32.4944 24.352C32.2572 24.4535 32.0455 24.5427 31.8555 24.6229C30.0285 25.3929 29.9158 25.4875 28.8402 27.1529C28.7283 27.3263 28.6037 27.5192 28.4625 27.7352C28.054 28.3599 27.3286 28.6242 26.6137 28.4082C26.3668 28.3335 26.1473 28.2657 25.9502 28.205C25.0028 27.9127 24.4922 27.7665 23.9819 27.7665ZM31.4253 18.0257C31.4253 13.9213 28.0862 10.5822 23.9819 10.5822C19.8776 10.5822 16.5385 13.9213 16.5385 18.0257C16.5385 22.1301 19.8776 25.4693 23.9819 25.4693C28.0862 25.4693 31.4253 22.1302 31.4253 18.0257ZM23.9818 23.9693C20.7046 23.9693 18.0384 21.303 18.0384 18.0257C18.0384 14.7485 20.7046 12.0822 23.9818 12.0822C27.259 12.0822 29.9252 14.7485 29.9252 18.0257C29.9253 21.303 27.259 23.9693 23.9818 23.9693ZM28.101 16.2573L22.9795 20.9052C22.8362 21.0352 22.6558 21.0998 22.4756 21.0998C22.2832 21.0998 22.0912 21.0262 21.9452 20.8801L19.8365 18.7715C19.5437 18.4786 19.5437 18.0038 19.8365 17.7109C20.1295 17.418 20.6042 17.418 20.8972 17.7109L22.5006 19.3143L27.093 15.1467C27.3996 14.8684 27.874 14.8913 28.1523 15.198C28.4307 15.5046 28.4077 15.979 28.101 16.2573ZM42.3392 40.8307C43.3278 39.8423 43.8299 38.5953 43.7911 37.2246L43.4259 24.3309C43.3899 23.0577 42.1241 21.9168 40.7592 21.9168C40.7461 21.9168 40.733 21.9169 40.72 21.9171C40.0541 21.9278 37.8829 22.2865 37.8987 26.4539L37.9254 33.4579C37.9261 33.618 37.9159 33.7736 37.8951 33.9252C37.8422 33.862 37.7856 33.8002 37.7252 33.7398C36.7996 32.8142 35.2836 32.8025 34.2739 33.7131C34.2488 33.7357 34.2252 33.76 34.2034 33.7857C33.0737 35.1215 31.6855 36.2915 30.57 37.2315C30.1787 37.5612 29.8094 37.8726 29.506 38.146C28.2339 39.2925 28.0641 40.8723 28.0658 42.2664L28.0718 47.2544L27.425 47.2489C26.9871 47.2449 26.5744 47.4126 26.2613 47.7203C25.9482 48.0281 25.7736 48.4385 25.7699 48.8758L25.7531 50.827C25.7493 51.2643 25.9168 51.6777 26.2246 51.9908C26.5322 52.3039 26.9427 52.4784 27.38 52.4821L37.5159 52.5692C37.5207 52.5692 37.5255 52.5693 37.5302 52.5693C37.9622 52.5693 38.37 52.4022 38.6796 52.0978C38.9927 51.79 39.1672 51.3796 39.171 50.9423L39.1877 48.9912C39.1915 48.5538 39.0241 48.1405 38.7163 47.8273C38.4086 47.5142 37.9981 47.3397 37.5608 47.336L36.7269 47.3289V46.443L42.3392 40.8307ZM37.6877 48.9783L37.671 50.9294C37.6706 50.9765 37.6474 51.0091 37.628 51.0282C37.6087 51.0473 37.5785 51.0696 37.5287 51.0694L27.3928 50.9823C27.3458 50.9819 27.3132 50.9588 27.2942 50.9394C27.2751 50.92 27.2525 50.8871 27.253 50.84L27.2698 48.8889C27.2702 48.8418 27.2933 48.8092 27.3127 48.7902C27.3318 48.7713 27.3645 48.7489 27.4107 48.7489H27.412H27.4121L37.548 48.836C37.6245 48.8367 37.6885 48.9018 37.6877 48.9783ZM29.5718 47.2675L29.5658 42.2647C29.5639 40.737 29.8376 39.8667 30.5103 39.2603C30.7951 39.0036 31.1387 38.714 31.5365 38.3787C32.6833 37.4122 34.1078 36.2117 35.3117 34.7982C35.7327 34.4451 36.3075 34.4435 36.6646 34.8006C37.0446 35.1806 37.0451 35.6326 36.6677 36.1443C36.0714 36.8146 35.4444 37.4218 34.7809 38.0638C34.4625 38.3721 34.133 38.6908 33.8008 39.0232C33.5079 39.3161 33.5079 39.7909 33.8009 40.0838C33.9473 40.2302 34.1391 40.3034 34.3311 40.3034C34.5231 40.3034 34.7151 40.2302 34.8615 40.0837C35.185 39.7602 35.5098 39.4457 35.8241 39.1417C36.5173 38.4709 37.1719 37.8373 37.8133 37.1138C37.8167 37.1099 38.3156 36.4996 38.3156 36.4996C39.0666 35.5751 39.4296 34.5782 39.4254 33.4524L39.3987 26.4483C39.3917 24.592 39.9072 23.4304 40.744 23.417C40.7492 23.4169 40.7541 23.4169 40.7592 23.4169C41.3162 23.4169 41.9132 23.9039 41.9265 24.3734L42.2917 37.2672C42.3189 38.2287 41.978 39.0708 41.2786 39.7701L35.4466 45.6021C35.3059 45.7427 35.2269 45.9335 35.2269 46.1323V47.316L29.5718 47.2675ZM27.9913 49.6516C28.1149 49.3405 28.4675 49.1885 28.7787 49.3122C29.0898 49.4359 29.2418 49.7885 29.1182 50.0997C28.9944 50.4108 28.6419 50.5628 28.3307 50.439C28.0195 50.3153 27.8675 49.9628 27.9913 49.6516ZM19.7384 47.7205C19.4252 47.4126 19.0116 47.2457 18.5746 47.2491L17.9279 47.2546L17.9339 42.2666C17.9356 40.8724 17.7658 39.2926 16.4937 38.1462C16.1905 37.8727 15.8209 37.5614 15.4298 37.2318C14.3144 36.2917 12.9261 35.1217 11.7963 33.7859C11.7746 33.7602 11.7511 33.7359 11.7259 33.7133C10.7158 32.8027 9.19975 32.8145 8.27453 33.74C8.21406 33.8004 8.15753 33.8622 8.10466 33.9253C8.08375 33.7737 8.07372 33.6183 8.07437 33.4582L8.10109 26.454C8.11684 22.2866 5.94569 21.928 5.27978 21.9172C5.26666 21.917 5.25381 21.9169 5.24059 21.9169C3.87569 21.9169 2.60978 23.0578 2.57387 24.331L2.20862 37.2248C2.16991 38.5955 2.67194 39.8424 3.66044 40.8308L9.27278 46.4432V47.3291L8.43887 47.3362C8.00153 47.3399 7.59109 47.5144 7.28341 47.8275C6.97562 48.1407 6.80819 48.554 6.81194 48.9913L6.82872 50.9425C6.83247 51.3798 7.00694 51.7902 7.32006 52.0979C7.62972 52.4023 8.03734 52.5695 8.46944 52.5695C8.47422 52.5695 8.47909 52.5695 8.48378 52.5694L18.6197 52.4823C19.057 52.4786 19.4674 52.3041 19.7751 51.991C20.0829 51.6778 20.2503 51.2645 20.2466 50.8272L20.2298 48.876C20.2262 48.4387 20.0515 48.0282 19.7384 47.7205ZM10.7728 46.1323C10.7728 45.9334 10.6937 45.7427 10.5531 45.6021L4.72103 39.77C4.02166 39.0707 3.68078 38.2287 3.70797 37.2672L4.07322 24.3733C4.08662 23.8995 4.69834 23.4088 5.25569 23.417C6.0925 23.4304 6.60803 24.592 6.601 26.4482L6.57428 33.4524C6.57006 34.5782 6.93306 35.575 7.68541 36.5012L8.16691 37.0907C8.17019 37.0947 8.18312 37.1099 8.1865 37.1138C8.82784 37.8373 9.4825 38.4709 10.1757 39.1417C10.4899 39.4458 10.8147 39.7602 11.1383 40.0837C11.2847 40.2301 11.4767 40.3034 11.6687 40.3034C11.8606 40.3034 12.0526 40.2302 12.1989 40.0838C12.4919 39.7909 12.4919 39.3161 12.199 39.0232C11.8667 38.6909 11.5373 38.3721 11.2188 38.0638C10.5554 37.4217 9.92837 36.8146 9.33203 36.1443C8.95478 35.6327 8.95516 35.1807 9.33522 34.8007C9.6925 34.4435 10.2671 34.4451 10.6882 34.7982C11.892 36.2118 13.3164 37.4123 14.4633 38.3788C14.8611 38.7142 15.2047 39.0037 15.4895 39.2605C16.1622 39.8667 16.4358 40.7371 16.434 42.2648L16.428 47.2676L10.7729 47.3161L10.7728 46.1323ZM18.7054 50.9395C18.6864 50.9589 18.6538 50.982 18.6068 50.9824L8.47094 51.0695C8.42303 51.0696 8.39087 51.0474 8.37156 51.0282C8.35216 51.0092 8.329 50.9767 8.32862 50.9295L8.31184 48.9784C8.31137 48.9313 8.33397 48.8983 8.353 48.879C8.37203 48.8597 8.40466 48.8365 8.45162 48.8361L18.5874 48.749H18.5888C18.6351 48.749 18.6677 48.7714 18.6869 48.7902C18.7063 48.8093 18.7294 48.8419 18.7298 48.889L18.7466 50.8401C18.7471 50.8872 18.7245 50.9201 18.7054 50.9395ZM18.0084 49.6516C18.1322 49.9628 17.9802 50.3153 17.669 50.439C17.3579 50.5628 17.0053 50.4108 16.8816 50.0997C16.7579 49.7885 16.9098 49.436 17.221 49.3122C17.5322 49.1885 17.8847 49.3405 18.0084 49.6516Z" fill="#96D055"/>
</g>
<defs>
<clipPath id="clip0_134_2666">
<rect width="45.3616" height="48" fill="white" transform="translate(0.5 0.532227)"/>
</clipPath>
</defs>
</svg>
