<svg width="36" height="41" viewBox="0 0 36 41" fill="none" xmlns="http://www.w3.org/2000/svg">
<path d="M7.51784 15.3097C7.67812 15.4042 7.85914 15.4512 8.03989 15.4512C8.23578 15.4512 8.43122 15.3959 8.59893 15.2861C8.92215 15.0747 9.06333 14.714 8.9585 14.3671L8.27342 12.0979L10.3085 10.625C10.6198 10.3999 10.7414 10.0335 10.618 9.69115C10.4945 9.34918 10.1572 9.11706 9.75851 9.09962L7.1501 8.98505L6.22323 6.78659C6.08149 6.45065 5.73184 6.23342 5.3328 6.23342C4.93348 6.23342 4.58401 6.45057 4.44237 6.78659L3.5154 8.98505L0.907178 9.09962C0.508412 9.11706 0.170967 9.34926 0.0475915 9.69115C-0.0758753 10.0333 0.0456638 10.3998 0.356763 10.6247L2.39218 12.0978L1.707 14.3672C1.60236 14.714 1.74336 15.0747 2.06657 15.2862C2.38942 15.4971 2.81371 15.5064 3.14776 15.3096L5.33261 14.0217L7.51784 15.3097ZM4.81112 12.7485L3.48116 13.5324L3.8981 12.1512C3.99752 11.8222 3.87102 11.4714 3.57571 11.2576L2.33673 10.3609L3.92427 10.2911C4.30274 10.2746 4.63413 10.0578 4.76843 9.73892L5.33271 8.40072L5.89707 9.73934C6.03165 10.0579 6.36303 10.2746 6.74096 10.2911L8.32868 10.3609L7.08997 11.2574C6.7943 11.4712 6.66771 11.8221 6.76731 12.1512L7.18434 13.5324L5.85466 12.7486C5.69604 12.6551 5.51437 12.6084 5.33261 12.6084C5.15113 12.6083 4.96956 12.6551 4.81112 12.7485ZM35.4616 9.69139C35.3383 9.34926 35.0009 9.11698 34.602 9.09954L31.9936 8.98497L31.0668 6.78651V6.78651C30.925 6.45057 30.5754 6.23334 30.1763 6.23334C29.777 6.23334 29.4275 6.45049 29.2859 6.78651L28.359 8.98497L25.7508 9.09954C25.352 9.11698 25.0146 9.34918 24.891 9.69139C24.7678 10.0333 24.8893 10.3996 25.2003 10.6246L27.2358 12.0978L26.5507 14.3668C26.4459 14.7137 26.5869 15.0746 26.9102 15.2861C27.2331 15.497 27.6575 15.5064 27.9915 15.3096L30.1763 14.0216L32.3616 15.3097C32.5218 15.4041 32.7028 15.451 32.8834 15.451C33.0793 15.451 33.2748 15.3958 33.4426 15.286C33.7658 15.0746 33.9069 14.7139 33.802 14.367L33.117 12.0978L35.1522 10.6248C35.4636 10.3996 35.585 10.0331 35.4616 9.69139ZM31.9337 11.2575C31.638 11.4713 31.5114 11.8222 31.611 12.1512L32.0281 13.5325L30.6984 12.7487C30.5398 12.6551 30.3581 12.6084 30.1763 12.6084C29.9947 12.6084 29.8131 12.6551 29.6547 12.7485L28.3247 13.5325L28.7418 12.151C28.841 11.8221 28.7145 11.4714 28.4193 11.2577L27.1803 10.361L28.7678 10.2912C29.1461 10.2747 29.4774 10.058 29.612 9.73901L30.1762 8.4008L30.7404 9.73909C30.8749 10.0579 31.2063 10.2747 31.5844 10.2912L33.1721 10.361L31.9337 11.2575ZM12.7785 4.39131L14.8139 5.86442L14.1288 8.13381C14.0241 8.48074 14.1652 8.84147 14.4881 9.05242C14.8111 9.26379 15.2356 9.27313 15.5696 9.07623L17.7546 7.78836L19.9398 9.07648C20.1001 9.17088 20.2811 9.21774 20.4617 9.21774C20.6575 9.21774 20.853 9.16253 21.0207 9.05275C21.3439 8.84139 21.4851 8.48065 21.3803 8.13372L20.6952 5.8645L22.731 4.39122C23.0418 4.16606 23.1631 3.79978 23.0399 3.45781C22.9164 3.11584 22.579 2.88373 22.1804 2.86629L19.5721 2.75172L18.6451 0.553253V0.553253C18.5033 0.217234 18.1537 0 17.7546 0C17.3552 0 17.0058 0.217152 16.8641 0.553171L15.9372 2.75163L13.3289 2.8662C12.9302 2.88364 12.5927 3.11584 12.4693 3.45806C12.3462 3.79978 12.4675 4.16605 12.7785 4.39131ZM16.3462 4.05785C16.7246 4.04132 17.056 3.8245 17.1904 3.50559L17.7546 2.16738L18.3187 3.50551C18.4531 3.8245 18.7845 4.04132 19.1628 4.05793L20.7505 4.1277L19.5114 5.02449C19.2162 5.23826 19.0898 5.58899 19.1891 5.91798L19.6061 7.29925L18.2764 6.51546C18.1178 6.42189 17.9361 6.37518 17.7544 6.37518C17.5728 6.37518 17.3911 6.42189 17.2327 6.51529L15.9027 7.29925L16.3198 5.9179C16.4191 5.58891 16.2925 5.23817 15.9973 5.02441L14.7583 4.1277L16.3462 4.05785ZM30.6859 23.0373C30.4647 21.9071 28.9348 21.2636 27.7056 20.7465C27.4146 20.6241 27.0338 20.4639 26.8514 20.3611C26.8437 20.1675 26.8801 19.7906 26.9079 19.5024C27.0252 18.2851 27.1714 16.7703 26.195 16.0327C25.2188 15.2949 23.5876 15.6875 22.2768 16.0029C21.9665 16.0776 21.5604 16.1754 21.3473 16.2022C21.2033 16.0583 20.962 15.7485 20.7777 15.5118C19.9987 14.5113 19.0293 13.2663 17.7548 13.2663C16.4804 13.2663 15.511 14.5111 14.7322 15.5113C14.5477 15.7482 14.3063 16.0581 14.1623 16.2021C13.9492 16.1752 13.5433 16.0775 13.233 16.0028C11.9223 15.6876 10.2908 15.2948 9.31449 16.0324C8.33823 16.77 8.48428 18.2848 8.60159 19.5019C8.62941 19.7901 8.66576 20.1672 8.65814 20.3609C8.47574 20.4637 8.09496 20.6239 7.80406 20.7462C6.57472 21.2633 5.04474 21.9068 4.82351 23.0369C4.60219 24.1671 5.79527 25.2429 6.754 26.1073C6.98101 26.3121 7.27806 26.5799 7.41044 26.7326C7.34407 26.9169 7.16672 27.2599 7.03122 27.5221C6.45859 28.6298 5.74597 30.0083 6.38314 31.0023C6.76189 31.593 7.50985 31.8798 8.33813 32.0378L5.59754 37.3384C5.48206 37.5618 5.514 37.8244 5.68043 38.0199C5.84686 38.2154 6.12023 38.3116 6.38965 38.269L10.1841 37.672L12.1193 40.6709C12.2512 40.8753 12.4935 40.9999 12.7542 40.9999C12.7653 40.9999 12.7765 40.9997 12.7876 40.9993C13.0609 40.988 13.3046 40.841 13.4201 40.6178L16.0192 35.5907C16.3452 35.4071 16.6607 35.2088 16.9569 35.0224C17.2201 34.8566 17.5647 34.6397 17.7548 34.5489C17.9448 34.6398 18.2892 34.8566 18.5523 35.0223C18.8486 35.2089 19.1643 35.4075 19.4905 35.5911L22.0895 40.6179C22.205 40.8411 22.4487 40.9881 22.722 40.9993C22.7332 40.9998 22.7443 41 22.7554 41C23.0161 41 23.2583 40.8752 23.3903 40.671L25.3256 37.6721L29.12 38.2691C29.3894 38.3113 29.6628 38.2155 29.8293 38.02C29.9957 37.8245 30.0276 37.5619 29.9121 37.3385L27.1716 32.0379C27.9998 31.88 28.7477 31.5931 29.1265 31.0025C29.7636 30.0088 29.0511 28.6303 28.4786 27.5227C28.343 27.2604 28.1655 26.9172 28.0992 26.7329C28.2316 26.5801 28.5286 26.3124 28.7555 26.1078C29.714 25.2433 30.9072 24.1673 30.6859 23.0373ZM12.6821 38.9111L11.1966 36.609C11.0421 36.3696 10.7384 36.2425 10.4352 36.2899L7.52261 36.7481L9.86288 32.2217C9.92696 32.2269 9.99057 32.2319 10.0534 32.237C10.3734 32.2624 10.7922 32.2956 11.0026 32.336C11.0833 32.5156 11.1923 32.8811 11.2756 33.1603C11.6277 34.3402 12.0658 35.8088 13.2634 36.2013C13.4695 36.2689 13.681 36.299 13.8959 36.299C13.9422 36.299 13.989 36.2961 14.0356 36.2933L12.6821 38.9111ZM27.9864 36.7481L25.0738 36.2899C24.7708 36.2425 24.467 36.3696 24.3124 36.609L22.8269 38.9111L21.4739 36.2942C21.7364 36.3095 21.995 36.2833 22.2455 36.2013C23.4429 35.8089 23.881 34.3405 24.233 33.1607C24.3164 32.8813 24.4255 32.5157 24.5062 32.3361C24.7166 32.2958 25.1352 32.2624 25.4551 32.2371C25.5181 32.2321 25.5819 32.2271 25.6462 32.2218L27.9864 36.7481ZM27.1467 28.0808C27.4831 28.7317 28.1093 29.9431 27.8541 30.3412C27.599 30.7393 26.1206 30.8566 25.3262 30.9197C24.4659 30.988 23.8976 31.0331 23.5424 31.3015C23.1869 31.57 23.0389 32.0663 22.8147 32.8176C22.6079 33.5109 22.2228 34.8014 21.7431 34.9585C21.2631 35.1156 20.0472 34.3499 19.3937 33.9385C18.6859 33.4928 18.2183 33.1984 17.7546 33.1984C17.2906 33.1984 16.8229 33.4928 16.115 33.9386C15.4616 34.35 14.2456 35.116 13.7658 34.9585C13.2862 34.8013 12.9011 33.5105 12.6942 32.8172C12.4701 32.0661 12.322 31.57 11.9669 31.3016C11.6114 31.033 11.0429 30.9879 10.1824 30.9195C9.38829 30.8564 7.91009 30.7391 7.6548 30.3411C7.39951 29.943 8.02593 28.7313 8.36237 28.0803C8.7268 27.3753 8.96759 26.9096 8.88708 26.4984C8.80667 26.0868 8.40331 25.7233 7.79286 25.1728C7.2295 24.6648 6.18091 23.7194 6.26958 23.2666C6.35817 22.814 7.7029 22.2484 8.42534 21.9446C9.20782 21.6155 9.72482 21.398 9.9567 21.0364C10.1887 20.6745 10.1393 20.1626 10.0646 19.3877C9.99562 18.6725 9.86729 17.3411 10.2582 17.0458C10.3675 16.9632 10.5582 16.9306 10.7931 16.9306C11.3987 16.9306 12.2984 17.1471 12.8535 17.2807C13.6879 17.4815 14.2391 17.6142 14.6748 17.4713C15.1108 17.3284 15.4384 16.9077 15.9344 16.2708C16.3921 15.6831 17.2441 14.5889 17.7545 14.5889C18.265 14.5889 19.117 15.6832 19.5749 16.2712C20.0707 16.9079 20.3982 17.3286 20.8341 17.4714C21.2698 17.6142 21.8212 17.4817 22.6557 17.2808C23.4259 17.0954 24.8596 16.7504 25.2507 17.0459C25.6418 17.3413 25.5133 18.6728 25.4444 19.3881C25.3697 20.1628 25.3203 20.6746 25.5522 21.0364C25.784 21.3982 26.3011 21.6156 27.0837 21.9448C27.806 22.2487 29.1506 22.8142 29.2392 23.267C29.3279 23.7195 28.2791 24.6651 27.7157 25.1731C27.1054 25.7235 26.7022 26.087 26.6217 26.4983C26.5413 26.9098 26.7821 27.3757 27.1467 28.0808ZM17.7546 17.9531C13.5728 17.9531 10.1706 21.0167 10.1706 24.7822C10.1706 28.548 13.5728 31.6115 17.7546 31.6115C21.9364 31.6115 25.3385 28.5479 25.3385 24.7822C25.3385 21.0167 21.9365 17.9531 17.7546 17.9531ZM17.7546 30.289C14.3826 30.289 11.6393 27.8186 11.6393 24.7823C11.6393 21.746 14.3826 19.2757 17.7546 19.2757C21.1264 19.2757 23.8698 21.746 23.8698 24.7823C23.8698 27.8186 21.1265 30.289 17.7546 30.289ZM20.9973 20.9563C20.4808 20.9576 19.9956 21.1398 19.6304 21.4705L16.4136 24.3929L15.8798 23.9122C15.1244 23.2323 13.8954 23.232 13.1398 23.9123C12.7739 24.2418 12.5724 24.6799 12.5724 25.1459C12.5724 25.6119 12.7739 26.05 13.1399 26.3795L15.0478 28.0975C15.4137 28.427 15.9003 28.6086 16.4178 28.6086C16.9354 28.6086 17.4219 28.4271 17.7877 28.0975C19.211 26.8159 21.4934 24.7269 22.3741 23.9259C23.126 23.245 23.1226 22.14 22.3664 21.463C22.0014 21.136 21.5173 20.9562 21.0028 20.9562L20.9973 20.9563ZM21.3314 22.9943C20.4481 23.7977 18.1682 25.8844 16.7491 27.1623C16.6606 27.242 16.5429 27.2859 16.4178 27.2859C16.2926 27.2859 16.1749 27.242 16.0864 27.1622L14.1785 25.4442C14.09 25.3645 14.0413 25.2586 14.0413 25.1459C14.0413 25.0332 14.09 24.9271 14.1785 24.8475C14.27 24.7653 14.3899 24.7241 14.51 24.7241C14.63 24.7241 14.7501 24.7653 14.8414 24.8475L15.8968 25.7979C16.0345 25.9219 16.2213 25.9916 16.4161 25.9916H16.4177C16.6131 25.9912 16.8002 25.9207 16.9377 25.7958L20.673 22.4024C20.7606 22.3231 20.8773 22.2792 21.0016 22.2788C21.1283 22.2794 21.2428 22.3219 21.331 22.4008C21.5127 22.5636 21.5136 22.8294 21.3314 22.9943Z" fill="#96D055"/>
</svg>
