<svg width="43" height="43" viewBox="0 0 43 43" fill="none" xmlns="http://www.w3.org/2000/svg">
<path d="M21.0976 27.5027C18.787 27.5027 16.9139 25.6596 16.9139 23.3861C16.9139 21.1126 18.787 19.2695 21.0976 19.2695C23.4082 19.2695 25.2812 21.1126 25.2812 23.3861C25.2812 25.6596 23.4082 27.5027 21.0976 27.5027Z" stroke="#96D055" stroke-miterlimit="10" stroke-linecap="round" stroke-linejoin="round"/>
<path d="M17.3789 26.6074C16.1331 26.6074 15.129 27.6228 15.129 28.8487V33.6605" stroke="#96D055" stroke-miterlimit="10" stroke-linecap="round" stroke-linejoin="round"/>
<path d="M25.0587 26.6074C26.3045 26.6074 27.3086 27.6228 27.3086 28.8487V33.6605" stroke="#96D055" stroke-miterlimit="10" stroke-linecap="round" stroke-linejoin="round"/>
<path d="M22.3895 28.1699L23.375 33.7044L21.1251 36.2384L18.6614 33.7044L19.8049 28.1699" stroke="#96D055" stroke-miterlimit="10" stroke-linecap="round" stroke-linejoin="round"/>
<path d="M6.68793 33.2735C4.38248 33.2735 2.51355 31.4345 2.51355 29.166C2.51355 26.8976 4.38248 25.0586 6.68793 25.0586C8.99337 25.0586 10.8623 26.8976 10.8623 29.166C10.8623 31.4345 8.99337 33.2735 6.68793 33.2735Z" stroke="#96D055" stroke-miterlimit="10" stroke-linecap="round" stroke-linejoin="round"/>
<path d="M2.96875 32.3867C1.73224 32.3867 0.718864 33.4021 0.718864 34.6188V39.4215" stroke="#96D055" stroke-miterlimit="10" stroke-linecap="round" stroke-linejoin="round"/>
<path d="M10.6476 32.3867C11.8841 32.3867 12.8975 33.4021 12.8975 34.6188V39.4215" stroke="#96D055" stroke-miterlimit="10" stroke-linecap="round" stroke-linejoin="round"/>
<path d="M7.97057 33.9434L8.95605 39.4687L6.71546 41.9936L4.26104 39.4687L5.39528 33.9434" stroke="#96D055" stroke-miterlimit="10" stroke-linecap="round" stroke-linejoin="round"/>
<path d="M35.5082 33.1836C33.2028 33.1836 31.3339 31.3447 31.3339 29.0762C31.3339 26.8077 33.2028 24.9688 35.5082 24.9688C37.8137 24.9688 39.6826 26.8077 39.6826 29.0762C39.6826 31.3447 37.8137 33.1836 35.5082 33.1836Z" stroke="#96D055" stroke-miterlimit="10" stroke-linecap="round" stroke-linejoin="round"/>
<path d="M31.7891 32.2949C30.5526 32.2949 29.5392 33.3103 29.5392 34.527V39.3297" stroke="#96D055" stroke-miterlimit="10" stroke-linecap="round" stroke-linejoin="round"/>
<path d="M39.4689 32.2949C40.7054 32.2949 41.7188 33.3103 41.7188 34.527V39.3297" stroke="#96D055" stroke-miterlimit="10" stroke-linecap="round" stroke-linejoin="round"/>
<path d="M36.7919 33.8516L37.7773 39.3769L35.5368 41.9018L33.0823 39.3769L34.2166 33.8516" stroke="#96D055" stroke-miterlimit="10" stroke-linecap="round" stroke-linejoin="round"/>
<path d="M15.1481 41.1416C17.0168 41.6814 18.9971 41.9741 21.0425 41.9741C23.2087 41.9741 25.3005 41.6448 27.2715 41.041" stroke="#96D055" stroke-linecap="round" stroke-linejoin="round"/>
<path d="M37.1348 8.47522C33.3137 3.91039 27.5216 0.992188 21.0416 0.992188C14.7196 0.992188 9.04837 3.76402 5.22728 8.14589" stroke="#96D055" stroke-linecap="round" stroke-linejoin="round"/>
<path d="M17.5933 8.3922C17.5933 10.2035 19.0808 11.6672 20.9217 11.6672C22.7625 11.6672 24.25 10.2035 24.25 8.3922C24.25 6.5809 22.7625 5.11723 20.9217 5.11723C19.0808 5.10808 17.5933 6.5809 17.5933 8.3922Z" stroke="#96D055" stroke-linecap="round" stroke-linejoin="round"/>
<path d="M19.2851 8.39199C19.2851 9.27935 20.0196 9.99289 20.9121 9.99289C21.8139 9.99289 22.5391 9.2702 22.5391 8.39199C22.5391 7.50464 21.8046 6.7911 20.9121 6.7911C20.0196 6.78195 19.2851 7.50464 19.2851 8.39199Z" stroke="#96D055" stroke-linecap="round" stroke-linejoin="round"/>
<path d="M22.2132 12.3438L24.3516 14.4478" stroke="#96D055" stroke-linecap="round" stroke-linejoin="round"/>
<path d="M20.93 13.6055L23.0684 15.7095" stroke="#96D055" stroke-linecap="round" stroke-linejoin="round"/>
<path d="M23.0686 15.7097V14.4473H24.3516" stroke="#96D055" stroke-linecap="round" stroke-linejoin="round"/>
<path d="M19.6377 12.3438L17.4994 14.4478" stroke="#96D055" stroke-linecap="round" stroke-linejoin="round"/>
<path d="M20.9209 13.6055L18.7826 15.7095" stroke="#96D055" stroke-linecap="round" stroke-linejoin="round"/>
<path d="M18.7822 15.7097V14.4473H17.4992" stroke="#96D055" stroke-linecap="round" stroke-linejoin="round"/>
<path d="M3.18218 13.691C3.18218 15.5023 4.66971 16.966 6.51052 16.966C8.35134 16.966 9.83887 15.5023 9.83887 13.691C9.83887 11.8797 8.35134 10.416 6.51052 10.416C4.66971 10.416 3.18218 11.8797 3.18218 13.691Z" stroke="#96D055" stroke-linecap="round" stroke-linejoin="round"/>
<path d="M4.87396 13.6907C4.87396 14.5781 5.60843 15.2916 6.50095 15.2916C7.40276 15.2916 8.12793 14.5689 8.12793 13.6907C8.12793 12.8034 7.39346 12.0898 6.50095 12.0898C5.60843 12.0898 4.87396 12.8034 4.87396 13.6907Z" stroke="#96D055" stroke-linecap="round" stroke-linejoin="round"/>
<path d="M7.80308 17.6543L9.94141 19.7583" stroke="#96D055" stroke-linecap="round" stroke-linejoin="round"/>
<path d="M6.51988 18.916L8.6582 21.02" stroke="#96D055" stroke-linecap="round" stroke-linejoin="round"/>
<path d="M8.65841 21.0202V19.7578H9.94141" stroke="#96D055" stroke-linecap="round" stroke-linejoin="round"/>
<path d="M5.22852 17.6543L3.09019 19.7583" stroke="#96D055" stroke-linecap="round" stroke-linejoin="round"/>
<path d="M6.51172 18.916L4.3734 21.02" stroke="#96D055" stroke-linecap="round" stroke-linejoin="round"/>
<path d="M4.37305 21.0202V19.7578H3.09005" stroke="#96D055" stroke-linecap="round" stroke-linejoin="round"/>
<path d="M32.0767 13.691C32.0767 15.5023 33.5642 16.966 35.4051 16.966C37.2459 16.966 38.7334 15.5023 38.7334 13.691C38.7334 11.8797 37.2459 10.416 35.4051 10.416C33.5642 10.416 32.0767 11.8797 32.0767 13.691Z" stroke="#96D055" stroke-linecap="round" stroke-linejoin="round"/>
<path d="M33.7792 13.6907C33.7792 14.5781 34.5137 15.2916 35.4062 15.2916C36.308 15.2916 37.0332 14.5689 37.0332 13.6907C37.0332 12.8034 36.2987 12.0898 35.4062 12.0898C34.5044 12.0898 33.7792 12.8034 33.7792 13.6907Z" stroke="#96D055" stroke-linecap="round" stroke-linejoin="round"/>
<path d="M36.6976 17.6543L38.8359 19.7583" stroke="#96D055" stroke-linecap="round" stroke-linejoin="round"/>
<path d="M35.4144 18.916L37.5527 21.02" stroke="#96D055" stroke-linecap="round" stroke-linejoin="round"/>
<path d="M37.5529 21.0202V19.7578H38.8359" stroke="#96D055" stroke-linecap="round" stroke-linejoin="round"/>
<path d="M34.123 17.6543L31.9847 19.7583" stroke="#96D055" stroke-linecap="round" stroke-linejoin="round"/>
<path d="M35.4062 18.916L33.2679 21.02" stroke="#96D055" stroke-linecap="round" stroke-linejoin="round"/>
<path d="M33.2686 21.0202V19.7578H31.9856" stroke="#96D055" stroke-linecap="round" stroke-linejoin="round"/>
</svg>
