<svg width="48" height="48" viewBox="0 0 48 48" fill="none" xmlns="http://www.w3.org/2000/svg">
<path d="M12.1188 31.5391L20.7203 40.1405C18.587 42.4985 16.7491 45.1363 15.2672 48.001H5.3668C4.25066 48.001 3.21646 47.6621 2.35742 47.0792C4.63921 41.2605 7.97617 36.0092 12.1188 31.5391Z" fill="#0E0D1B"/>
<path d="M36.3709 29.7927C31.3045 31.5316 26.7009 34.3371 22.8516 37.9617L14.2559 29.3679C18.0252 25.7662 22.3507 22.7626 27.0723 20.4941L36.3709 29.7927Z" fill="#0E0D1B"/>
<path d="M48.0025 15.624V27.7759C45.1588 27.812 42.3799 28.1682 39.7039 28.8158L30.0625 19.1744C35.6451 16.9307 41.7057 15.6813 48.0025 15.624Z" fill="#0E0D1B"/>
<path d="M22.0894 41.5107L28.5805 48.0018H17.4648C18.7638 45.6573 20.32 43.4821 22.0894 41.5107Z" fill="#0E0D1B"/>
<path d="M48.002 29.7148V37.1144L41.3262 30.4386C43.4917 29.9911 45.7259 29.7435 48.002 29.7148Z" fill="#0E0D1B"/>
<path d="M37.9057 31.3281L48.0023 41.4248V42.6361C48.0023 45.5998 45.6005 48.0015 42.6369 48.0015H32.8907L24.2207 39.3315C28.0928 35.6993 32.7631 32.9395 37.9057 31.3281Z" fill="#0E0D1B"/>
<path d="M9.55306 11.4905L8.36677 13.0088L0 6.47194V11.7462L7.10905 15.0612L6.2947 16.8075L0 13.8722V17.9146L5.53092 19.0903L5.13032 20.9749L0 19.8846V23.4565L4.89959 23.371L4.93324 25.2976L0 25.3837V28.9924L5.24744 27.684L5.71357 29.5537L0 30.9782V35.149L6.55658 31.8083L7.43132 33.5251L0 37.3116V42.6366C0 42.717 0.00535926 42.7958 0.00886162 42.8753L3.69743 39.7802C11.4559 26.1197 25.2202 16.5134 41.0843 14.2155L48.0023 10.6906V5.36557C48.0023 5.28464 47.9997 5.20451 47.9962 5.12449L39.2424 12.4699L38.0038 10.9938L47.4761 3.04573C46.6971 1.4236 45.1264 0.255141 43.2651 0.0376765L36.2578 9.33692L34.7189 8.17722L40.8809 0H35.7417L32.6449 6.95553L30.8846 6.17191L33.6325 0H29.6479L28.5889 5.44798L26.6975 5.08044L27.685 0H24.9645V4.9136H23.0377V0H19.4488L20.6461 5.1861L18.7686 5.61949L17.4712 0H13.3669L16.4996 6.42302L14.7677 7.26767L11.2231 0H5.80506L12.7376 8.56094L11.2401 9.77366L3.57458 0.307253C1.86888 0.911198 0.560643 2.35311 0.142694 4.13836L9.55306 11.4905Z" fill="#96D055"/>
<path d="M46.2773 13.7324C46.8504 13.7082 47.4252 13.6919 48.0022 13.6868V12.8535L46.2773 13.7324Z" fill="url(#paint0_radial_183_11497)"/>
<path d="M0.527344 44.9551C0.629761 45.1681 0.744384 45.3742 0.872857 45.5706C1.0692 45.0937 1.2742 44.6216 1.48413 44.1523L0.527344 44.9551Z" fill="url(#paint1_radial_183_11497)"/>
<defs>
<radialGradient id="paint0_radial_183_11497" cx="0" cy="0" r="1" gradientUnits="userSpaceOnUse" gradientTransform="translate(21.7154 20.1921) scale(42.5589 42.5589)">
<stop stop-color="#F9AD42"/>
<stop offset="0.0361" stop-color="#F7A23E"/>
<stop offset="0.1285" stop-color="#F58A36"/>
<stop offset="0.2228" stop-color="#F37731"/>
<stop offset="0.3187" stop-color="#F2682D"/>
<stop offset="0.4172" stop-color="#F15F2B"/>
<stop offset="0.522" stop-color="#F15B2B"/>
<stop offset="1" stop-color="#BD2430"/>
</radialGradient>
<radialGradient id="paint1_radial_183_11497" cx="0" cy="0" r="1" gradientUnits="userSpaceOnUse" gradientTransform="translate(21.7146 20.1922) scale(42.5587 42.5586)">
<stop stop-color="#F9AD42"/>
<stop offset="0.0361" stop-color="#F7A23E"/>
<stop offset="0.1285" stop-color="#F58A36"/>
<stop offset="0.2228" stop-color="#F37731"/>
<stop offset="0.3187" stop-color="#F2682D"/>
<stop offset="0.4172" stop-color="#F15F2B"/>
<stop offset="0.522" stop-color="#F15B2B"/>
<stop offset="1" stop-color="#BD2430"/>
</radialGradient>
</defs>
</svg>
