<svg width="149" height="48" viewBox="0 0 149 48" fill="none" xmlns="http://www.w3.org/2000/svg">
<path d="M73.142 37.36C71.722 37.36 70.402 37.1 69.182 36.58C67.982 36.06 66.942 35.34 66.062 34.42C65.202 33.48 64.572 32.39 64.172 31.15L67.562 29.68C68.102 30.96 68.882 31.97 69.902 32.71C70.922 33.43 72.072 33.79 73.352 33.79C74.072 33.79 74.692 33.68 75.212 33.46C75.752 33.22 76.162 32.9 76.442 32.5C76.742 32.1 76.892 31.62 76.892 31.06C76.892 30.4 76.692 29.86 76.292 29.44C75.912 29 75.332 28.66 74.552 28.42L70.262 27.04C68.522 26.5 67.212 25.69 66.332 24.61C65.452 23.53 65.012 22.26 65.012 20.8C65.012 19.52 65.322 18.39 65.942 17.41C66.582 16.43 67.462 15.67 68.582 15.13C69.722 14.57 71.022 14.29 72.482 14.29C73.822 14.29 75.052 14.53 76.172 15.01C77.292 15.47 78.252 16.12 79.052 16.96C79.872 17.78 80.482 18.75 80.882 19.87L77.522 21.37C77.082 20.25 76.422 19.39 75.542 18.79C74.662 18.17 73.642 17.86 72.482 17.86C71.802 17.86 71.202 17.98 70.682 18.22C70.162 18.44 69.752 18.76 69.452 19.18C69.172 19.58 69.032 20.06 69.032 20.62C69.032 21.24 69.232 21.79 69.632 22.27C70.032 22.73 70.642 23.09 71.462 23.35L75.572 24.64C77.352 25.22 78.682 26.02 79.562 27.04C80.462 28.06 80.912 29.32 80.912 30.82C80.912 32.1 80.582 33.23 79.922 34.21C79.262 35.19 78.352 35.96 77.192 36.52C76.032 37.08 74.682 37.36 73.142 37.36ZM92.2358 37.36C90.6358 37.36 89.1758 36.99 87.8558 36.25C86.5558 35.51 85.5158 34.5 84.7358 33.22C83.9758 31.94 83.5958 30.48 83.5958 28.84C83.5958 27.2 83.9758 25.74 84.7358 24.46C85.5158 23.18 86.5558 22.17 87.8558 21.43C89.1558 20.69 90.6158 20.32 92.2358 20.32C93.8358 20.32 95.2858 20.69 96.5858 21.43C97.8858 22.17 98.9158 23.18 99.6758 24.46C100.456 25.72 100.846 27.18 100.846 28.84C100.846 30.48 100.456 31.94 99.6758 33.22C98.8958 34.5 97.8558 35.51 96.5558 36.25C95.2558 36.99 93.8158 37.36 92.2358 37.36ZM92.2358 33.76C93.1158 33.76 93.8858 33.55 94.5458 33.13C95.2258 32.71 95.7558 32.13 96.1358 31.39C96.5358 30.63 96.7358 29.78 96.7358 28.84C96.7358 27.88 96.5358 27.04 96.1358 26.32C95.7558 25.58 95.2258 25 94.5458 24.58C93.8858 24.14 93.1158 23.92 92.2358 23.92C91.3358 23.92 90.5458 24.14 89.8658 24.58C89.1858 25 88.6458 25.58 88.2458 26.32C87.8658 27.04 87.6758 27.88 87.6758 28.84C87.6758 29.78 87.8658 30.63 88.2458 31.39C88.6458 32.13 89.1858 32.71 89.8658 33.13C90.5458 33.55 91.3358 33.76 92.2358 33.76ZM108.776 37.36C107.636 37.36 106.646 37.17 105.806 36.79C104.966 36.41 104.316 35.87 103.856 35.17C103.396 34.45 103.166 33.62 103.166 32.68C103.166 31.78 103.366 30.98 103.766 30.28C104.166 29.56 104.786 28.96 105.626 28.48C106.466 28 107.526 27.66 108.806 27.46L114.146 26.59V29.59L109.556 30.37C108.776 30.51 108.196 30.76 107.816 31.12C107.436 31.48 107.246 31.95 107.246 32.53C107.246 33.09 107.456 33.54 107.876 33.88C108.316 34.2 108.856 34.36 109.496 34.36C110.316 34.36 111.036 34.19 111.656 33.85C112.296 33.49 112.786 33 113.126 32.38C113.486 31.76 113.666 31.08 113.666 30.34V26.14C113.666 25.44 113.386 24.86 112.826 24.4C112.286 23.92 111.566 23.68 110.666 23.68C109.826 23.68 109.076 23.91 108.416 24.37C107.776 24.81 107.306 25.4 107.006 26.14L103.796 24.58C104.116 23.72 104.616 22.98 105.296 22.36C105.996 21.72 106.816 21.22 107.756 20.86C108.696 20.5 109.716 20.32 110.816 20.32C112.156 20.32 113.336 20.57 114.356 21.07C115.376 21.55 116.166 22.23 116.726 23.11C117.306 23.97 117.596 24.98 117.596 26.14V37H113.876V34.21L114.716 34.15C114.296 34.85 113.796 35.44 113.216 35.92C112.636 36.38 111.976 36.74 111.236 37C110.496 37.24 109.676 37.36 108.776 37.36ZM121.228 37V20.68H124.918V24.31L124.618 23.77C124.998 22.55 125.588 21.7 126.388 21.22C127.208 20.74 128.188 20.5 129.328 20.5H130.288V23.98H128.878C127.758 23.98 126.858 24.33 126.178 25.03C125.498 25.71 125.158 26.67 125.158 27.91V37H121.228ZM140.189 37.36C138.509 37.36 137.039 36.98 135.779 36.22C134.519 35.46 133.539 34.43 132.839 33.13C132.139 31.83 131.789 30.39 131.789 28.81C131.789 27.17 132.139 25.72 132.839 24.46C133.559 23.18 134.529 22.17 135.749 21.43C136.989 20.69 138.369 20.32 139.889 20.32C141.169 20.32 142.289 20.53 143.249 20.95C144.229 21.37 145.059 21.95 145.739 22.69C146.419 23.43 146.939 24.28 147.299 25.24C147.659 26.18 147.839 27.2 147.839 28.3C147.839 28.58 147.819 28.87 147.779 29.17C147.759 29.47 147.709 29.73 147.629 29.95H135.029V26.95H145.409L143.549 28.36C143.729 27.44 143.679 26.62 143.399 25.9C143.139 25.18 142.699 24.61 142.079 24.19C141.479 23.77 140.749 23.56 139.889 23.56C139.069 23.56 138.339 23.77 137.699 24.19C137.059 24.59 136.569 25.19 136.229 25.99C135.909 26.77 135.789 27.72 135.869 28.84C135.789 29.84 135.919 30.73 136.259 31.51C136.619 32.27 137.139 32.86 137.819 33.28C138.519 33.7 139.319 33.91 140.219 33.91C141.119 33.91 141.879 33.72 142.499 33.34C143.139 32.96 143.639 32.45 143.999 31.81L147.179 33.37C146.859 34.15 146.359 34.84 145.679 35.44C144.999 36.04 144.189 36.51 143.249 36.85C142.329 37.19 141.309 37.36 140.189 37.36Z" fill="#0E0D1B"/>
<path d="M12.1178 31.5391L20.7193 40.1405C18.5861 42.4985 16.7481 45.1363 15.2663 48.001H5.36582C4.24968 48.001 3.21548 47.6621 2.35645 47.0792C4.63823 41.2605 7.97519 36.0092 12.1178 31.5391Z" fill="#0E0D1B"/>
<path d="M36.3699 29.7927C31.3035 31.5316 26.6999 34.3371 22.8506 37.9617L14.2549 29.3679C18.0242 25.7662 22.3497 22.7626 27.0714 20.4941L36.3699 29.7927Z" fill="#0E0D1B"/>
<path d="M48.0015 15.624V27.7759C45.1579 27.812 42.379 28.1682 39.7029 28.8158L30.0615 19.1744C35.6441 16.9307 41.7047 15.6813 48.0015 15.624Z" fill="#0E0D1B"/>
<path d="M22.0884 41.5107L28.5795 48.0018H17.4639C18.7629 45.6573 20.319 43.4821 22.0884 41.5107Z" fill="#0E0D1B"/>
<path d="M48.0015 29.7148V37.1144L41.3257 30.4386C43.4913 29.9911 45.7254 29.7435 48.0015 29.7148Z" fill="#0E0D1B"/>
<path d="M37.9052 31.3281L48.0018 41.4248V42.6361C48.0018 45.5998 45.6 48.0015 42.6364 48.0015H32.8902L24.2202 39.3315C28.0923 35.6993 32.7626 32.9395 37.9052 31.3281Z" fill="#0E0D1B"/>
<path d="M9.55306 11.4905L8.36677 13.0088L0 6.47194V11.7462L7.10905 15.0612L6.2947 16.8075L0 13.8722V17.9146L5.53092 19.0903L5.13032 20.9749L0 19.8846V23.4565L4.89959 23.371L4.93324 25.2976L0 25.3837V28.9924L5.24744 27.684L5.71357 29.5537L0 30.9782V35.149L6.55658 31.8083L7.43132 33.5251L0 37.3116V42.6366C0 42.717 0.00535926 42.7958 0.00886162 42.8753L3.69743 39.7802C11.4559 26.1197 25.2202 16.5134 41.0843 14.2155L48.0023 10.6906V5.36557C48.0023 5.28464 47.9997 5.20451 47.9962 5.12449L39.2424 12.4699L38.0038 10.9938L47.4761 3.04573C46.6971 1.4236 45.1264 0.255141 43.2651 0.0376765L36.2578 9.33692L34.7189 8.17722L40.8809 0H35.7417L32.6449 6.95553L30.8846 6.17191L33.6325 0H29.6479L28.5889 5.44798L26.6975 5.08044L27.685 0H24.9645V4.9136H23.0377V0H19.4488L20.6461 5.1861L18.7686 5.61949L17.4712 0H13.3669L16.4996 6.42302L14.7677 7.26767L11.2231 0H5.80506L12.7376 8.56094L11.2401 9.77366L3.57458 0.307253C1.86888 0.911198 0.560643 2.35311 0.142694 4.13836L9.55306 11.4905Z" fill="#96D055"/>
<path d="M46.2773 13.7324C46.8504 13.7082 47.4252 13.6919 48.0022 13.6868V12.8535L46.2773 13.7324Z" fill="url(#paint0_radial_134_2405)"/>
<path d="M0.52832 44.9551C0.630738 45.1681 0.745361 45.3742 0.873834 45.5706C1.07018 45.0937 1.27517 44.6216 1.4851 44.1523L0.52832 44.9551Z" fill="url(#paint1_radial_134_2405)"/>
<defs>
<radialGradient id="paint0_radial_134_2405" cx="0" cy="0" r="1" gradientUnits="userSpaceOnUse" gradientTransform="translate(21.7154 20.1921) scale(42.5589 42.5589)">
<stop stop-color="#F9AD42"/>
<stop offset="0.0361" stop-color="#F7A23E"/>
<stop offset="0.1285" stop-color="#F58A36"/>
<stop offset="0.2228" stop-color="#F37731"/>
<stop offset="0.3187" stop-color="#F2682D"/>
<stop offset="0.4172" stop-color="#F15F2B"/>
<stop offset="0.522" stop-color="#F15B2B"/>
<stop offset="1" stop-color="#BD2430"/>
</radialGradient>
<radialGradient id="paint1_radial_134_2405" cx="0" cy="0" r="1" gradientUnits="userSpaceOnUse" gradientTransform="translate(21.7156 20.1922) scale(42.5587 42.5586)">
<stop stop-color="#F9AD42"/>
<stop offset="0.0361" stop-color="#F7A23E"/>
<stop offset="0.1285" stop-color="#F58A36"/>
<stop offset="0.2228" stop-color="#F37731"/>
<stop offset="0.3187" stop-color="#F2682D"/>
<stop offset="0.4172" stop-color="#F15F2B"/>
<stop offset="0.522" stop-color="#F15B2B"/>
<stop offset="1" stop-color="#BD2430"/>
</radialGradient>
</defs>
</svg>
